<mxfile host="app.diagrams.net" modified="2021-01-11T15:21:58.396Z" agent="5.0 (Windows NT 10.0; Win64; x64) AppleWebKit/537.36 (KHTML, like Gecko) Chrome/87.0.4280.88 Safari/537.36" etag="ostmZhbtpgO7MU7AmlqP" version="14.1.9" type="github">
  <diagram id="05P3EtJSHdNtM1MA3jFJ" name="Page-1">
    <mxGraphModel dx="1483" dy="783" grid="1" gridSize="10" guides="1" tooltips="1" connect="1" arrows="1" fold="1" page="1" pageScale="1" pageWidth="850" pageHeight="1100" math="0" shadow="0">
      <root>
        <mxCell id="0" />
        <mxCell id="1" parent="0" />
        <mxCell id="sACkI0Q_xZ0Zvb8qSm-h-85" style="edgeStyle=orthogonalEdgeStyle;rounded=0;orthogonalLoop=1;jettySize=auto;html=1;exitX=0.5;exitY=0;exitDx=0;exitDy=0;entryX=0.75;entryY=1;entryDx=0;entryDy=0;" edge="1" parent="1" source="sACkI0Q_xZ0Zvb8qSm-h-43" target="sACkI0Q_xZ0Zvb8qSm-h-45">
          <mxGeometry relative="1" as="geometry" />
        </mxCell>
        <mxCell id="sACkI0Q_xZ0Zvb8qSm-h-86" style="edgeStyle=orthogonalEdgeStyle;rounded=0;orthogonalLoop=1;jettySize=auto;html=1;exitX=1;exitY=0.75;exitDx=0;exitDy=0;entryX=0.5;entryY=1;entryDx=0;entryDy=0;" edge="1" parent="1" source="sACkI0Q_xZ0Zvb8qSm-h-43" target="sACkI0Q_xZ0Zvb8qSm-h-50">
          <mxGeometry relative="1" as="geometry" />
        </mxCell>
        <mxCell id="sACkI0Q_xZ0Zvb8qSm-h-87" style="edgeStyle=orthogonalEdgeStyle;rounded=0;orthogonalLoop=1;jettySize=auto;html=1;exitX=1;exitY=0.25;exitDx=0;exitDy=0;entryX=0.5;entryY=1;entryDx=0;entryDy=0;" edge="1" parent="1" source="sACkI0Q_xZ0Zvb8qSm-h-43" target="sACkI0Q_xZ0Zvb8qSm-h-54">
          <mxGeometry relative="1" as="geometry" />
        </mxCell>
        <mxCell id="sACkI0Q_xZ0Zvb8qSm-h-43" value="PVT&lt;br&gt;PV(t)" style="shape=process;whiteSpace=wrap;html=1;backgroundOutline=1;fontSize=15;" vertex="1" parent="1">
          <mxGeometry x="710" y="749.75" width="99" height="50.25" as="geometry" />
        </mxCell>
        <mxCell id="sACkI0Q_xZ0Zvb8qSm-h-44" value="DG" style="rounded=0;whiteSpace=wrap;html=1;fontSize=14;" vertex="1" parent="1">
          <mxGeometry x="425" y="713.75" width="45" height="36" as="geometry" />
        </mxCell>
        <mxCell id="sACkI0Q_xZ0Zvb8qSm-h-45" value="Electrical &lt;br&gt;Load&lt;br&gt;EL(t)" style="shape=trapezoid;perimeter=trapezoidPerimeter;whiteSpace=wrap;html=1;fixedSize=1;fontSize=15;" vertex="1" parent="1">
          <mxGeometry x="500" y="620" width="210" height="85" as="geometry" />
        </mxCell>
        <mxCell id="sACkI0Q_xZ0Zvb8qSm-h-89" style="edgeStyle=orthogonalEdgeStyle;rounded=0;orthogonalLoop=1;jettySize=auto;html=1;exitX=0.5;exitY=1;exitDx=0;exitDy=0;entryX=0.5;entryY=0;entryDx=0;entryDy=0;" edge="1" parent="1" source="sACkI0Q_xZ0Zvb8qSm-h-46" target="sACkI0Q_xZ0Zvb8qSm-h-51">
          <mxGeometry relative="1" as="geometry" />
        </mxCell>
        <mxCell id="sACkI0Q_xZ0Zvb8qSm-h-46" value="Electric&lt;br&gt;Chiller" style="whiteSpace=wrap;html=1;aspect=fixed;fontSize=14;" vertex="1" parent="1">
          <mxGeometry x="518" y="648.5" width="50" height="50" as="geometry" />
        </mxCell>
        <mxCell id="sACkI0Q_xZ0Zvb8qSm-h-62" style="edgeStyle=orthogonalEdgeStyle;rounded=0;orthogonalLoop=1;jettySize=auto;html=1;exitX=0;exitY=0.25;exitDx=0;exitDy=0;entryX=1;entryY=0.5;entryDx=0;entryDy=0;" edge="1" parent="1" source="sACkI0Q_xZ0Zvb8qSm-h-48" target="sACkI0Q_xZ0Zvb8qSm-h-49">
          <mxGeometry relative="1" as="geometry" />
        </mxCell>
        <mxCell id="sACkI0Q_xZ0Zvb8qSm-h-48" value="GRID" style="rounded=0;whiteSpace=wrap;html=1;fontSize=12;" vertex="1" parent="1">
          <mxGeometry x="920" y="635.75" width="37" height="114" as="geometry" />
        </mxCell>
        <mxCell id="sACkI0Q_xZ0Zvb8qSm-h-63" style="edgeStyle=orthogonalEdgeStyle;rounded=0;orthogonalLoop=1;jettySize=auto;html=1;entryX=1;entryY=0;entryDx=0;entryDy=0;" edge="1" parent="1" source="sACkI0Q_xZ0Zvb8qSm-h-49" target="sACkI0Q_xZ0Zvb8qSm-h-45">
          <mxGeometry relative="1" as="geometry" />
        </mxCell>
        <mxCell id="sACkI0Q_xZ0Zvb8qSm-h-88" style="edgeStyle=orthogonalEdgeStyle;rounded=0;orthogonalLoop=1;jettySize=auto;html=1;exitX=0.5;exitY=1;exitDx=0;exitDy=0;entryX=1;entryY=0.25;entryDx=0;entryDy=0;" edge="1" parent="1" source="sACkI0Q_xZ0Zvb8qSm-h-49" target="sACkI0Q_xZ0Zvb8qSm-h-54">
          <mxGeometry relative="1" as="geometry" />
        </mxCell>
        <mxCell id="sACkI0Q_xZ0Zvb8qSm-h-49" value="" style="ellipse;whiteSpace=wrap;html=1;aspect=fixed;" vertex="1" parent="1">
          <mxGeometry x="840" y="632" width="25" height="25" as="geometry" />
        </mxCell>
        <mxCell id="sACkI0Q_xZ0Zvb8qSm-h-66" style="edgeStyle=orthogonalEdgeStyle;rounded=0;orthogonalLoop=1;jettySize=auto;html=1;exitX=1;exitY=0.5;exitDx=0;exitDy=0;entryX=0;entryY=0.75;entryDx=0;entryDy=0;" edge="1" parent="1" source="sACkI0Q_xZ0Zvb8qSm-h-50" target="sACkI0Q_xZ0Zvb8qSm-h-48">
          <mxGeometry relative="1" as="geometry" />
        </mxCell>
        <mxCell id="sACkI0Q_xZ0Zvb8qSm-h-50" value="" style="ellipse;whiteSpace=wrap;html=1;aspect=fixed;" vertex="1" parent="1">
          <mxGeometry x="840" y="733" width="25" height="25" as="geometry" />
        </mxCell>
        <mxCell id="sACkI0Q_xZ0Zvb8qSm-h-51" value="Cooling&lt;br&gt;Load C(t)" style="shape=trapezoid;perimeter=trapezoidPerimeter;whiteSpace=wrap;html=1;fixedSize=1;fontSize=15;" vertex="1" parent="1">
          <mxGeometry x="483" y="800" width="120" height="60" as="geometry" />
        </mxCell>
        <mxCell id="sACkI0Q_xZ0Zvb8qSm-h-135" style="edgeStyle=orthogonalEdgeStyle;rounded=0;orthogonalLoop=1;jettySize=auto;html=1;exitX=1;exitY=0.25;exitDx=0;exitDy=0;entryX=0.25;entryY=0;entryDx=0;entryDy=0;strokeColor=#4C0099;" edge="1" parent="1" source="sACkI0Q_xZ0Zvb8qSm-h-53" target="sACkI0Q_xZ0Zvb8qSm-h-102">
          <mxGeometry relative="1" as="geometry" />
        </mxCell>
        <mxCell id="sACkI0Q_xZ0Zvb8qSm-h-53" value="Thermal Storage&lt;br style=&quot;font-size: 12px;&quot;&gt;SoC&lt;sub style=&quot;font-size: 12px;&quot;&gt;TS&lt;/sub&gt;(t)" style="rounded=0;whiteSpace=wrap;html=1;fontSize=12;" vertex="1" parent="1">
          <mxGeometry x="850" y="430" width="58.38" height="50" as="geometry" />
        </mxCell>
        <mxCell id="sACkI0Q_xZ0Zvb8qSm-h-84" style="edgeStyle=orthogonalEdgeStyle;rounded=0;orthogonalLoop=1;jettySize=auto;html=1;exitX=0;exitY=0.25;exitDx=0;exitDy=0;" edge="1" parent="1" source="sACkI0Q_xZ0Zvb8qSm-h-54" target="sACkI0Q_xZ0Zvb8qSm-h-45">
          <mxGeometry relative="1" as="geometry" />
        </mxCell>
        <mxCell id="sACkI0Q_xZ0Zvb8qSm-h-54" value="Electrical Storage&lt;br&gt;SoC&lt;sub&gt;ES&lt;/sub&gt;(t)" style="rounded=0;whiteSpace=wrap;html=1;" vertex="1" parent="1">
          <mxGeometry x="750.62" y="663.75" width="58.38" height="50" as="geometry" />
        </mxCell>
        <mxCell id="sACkI0Q_xZ0Zvb8qSm-h-55" value="Heating&lt;br&gt;Load H(t)" style="shape=trapezoid;perimeter=trapezoidPerimeter;whiteSpace=wrap;html=1;fixedSize=1;fontSize=15;" vertex="1" parent="1">
          <mxGeometry x="680" y="840" width="120" height="60" as="geometry" />
        </mxCell>
        <mxCell id="sACkI0Q_xZ0Zvb8qSm-h-77" style="edgeStyle=orthogonalEdgeStyle;rounded=0;orthogonalLoop=1;jettySize=auto;html=1;exitX=1;exitY=0.75;exitDx=0;exitDy=0;entryX=0.5;entryY=0;entryDx=0;entryDy=0;" edge="1" parent="1" source="sACkI0Q_xZ0Zvb8qSm-h-54" target="sACkI0Q_xZ0Zvb8qSm-h-50">
          <mxGeometry relative="1" as="geometry">
            <mxPoint x="774.9999999999984" y="777.75" as="sourcePoint" />
          </mxGeometry>
        </mxCell>
        <mxCell id="sACkI0Q_xZ0Zvb8qSm-h-93" value="Electric&lt;br&gt;Heater" style="whiteSpace=wrap;html=1;aspect=fixed;fontSize=14;" vertex="1" parent="1">
          <mxGeometry x="638.38" y="648.5" width="50" height="50" as="geometry" />
        </mxCell>
        <mxCell id="sACkI0Q_xZ0Zvb8qSm-h-97" value="GRID" style="rounded=0;whiteSpace=wrap;html=1;fontSize=12;" vertex="1" parent="1">
          <mxGeometry x="280" y="240" width="37" height="114" as="geometry" />
        </mxCell>
        <mxCell id="sACkI0Q_xZ0Zvb8qSm-h-127" style="edgeStyle=orthogonalEdgeStyle;rounded=0;orthogonalLoop=1;jettySize=auto;html=1;exitX=1;exitY=0.25;exitDx=0;exitDy=0;entryX=0;entryY=0.5;entryDx=0;entryDy=0;strokeColor=#97D077;" edge="1" parent="1" source="sACkI0Q_xZ0Zvb8qSm-h-98" target="sACkI0Q_xZ0Zvb8qSm-h-99">
          <mxGeometry relative="1" as="geometry">
            <Array as="points">
              <mxPoint x="582" y="292" />
              <mxPoint x="547" y="292" />
              <mxPoint x="547" y="273" />
            </Array>
          </mxGeometry>
        </mxCell>
        <mxCell id="sACkI0Q_xZ0Zvb8qSm-h-98" value="Electrical Storage&lt;br&gt;SoC&lt;sub&gt;ES&lt;/sub&gt;(t)" style="rounded=0;whiteSpace=wrap;html=1;" vertex="1" parent="1">
          <mxGeometry x="523.62" y="265" width="58.38" height="50" as="geometry" />
        </mxCell>
        <mxCell id="sACkI0Q_xZ0Zvb8qSm-h-99" value="Electrical &lt;br&gt;Load&lt;br&gt;EL(t)" style="shape=trapezoid;perimeter=trapezoidPerimeter;whiteSpace=wrap;html=1;fixedSize=1;fontSize=15;" vertex="1" parent="1">
          <mxGeometry x="747" y="230" width="210" height="85" as="geometry" />
        </mxCell>
        <mxCell id="sACkI0Q_xZ0Zvb8qSm-h-130" style="edgeStyle=orthogonalEdgeStyle;rounded=0;orthogonalLoop=1;jettySize=auto;html=1;exitX=0.5;exitY=1;exitDx=0;exitDy=0;entryX=0.5;entryY=0;entryDx=0;entryDy=0;strokeColor=#4C0099;" edge="1" parent="1" source="sACkI0Q_xZ0Zvb8qSm-h-100" target="sACkI0Q_xZ0Zvb8qSm-h-103">
          <mxGeometry relative="1" as="geometry" />
        </mxCell>
        <mxCell id="sACkI0Q_xZ0Zvb8qSm-h-100" value="Electric&lt;br&gt;Chiller" style="whiteSpace=wrap;html=1;aspect=fixed;fontSize=14;" vertex="1" parent="1">
          <mxGeometry x="770" y="265" width="50" height="50" as="geometry" />
        </mxCell>
        <mxCell id="sACkI0Q_xZ0Zvb8qSm-h-131" style="edgeStyle=orthogonalEdgeStyle;rounded=0;orthogonalLoop=1;jettySize=auto;html=1;exitX=0.5;exitY=1;exitDx=0;exitDy=0;strokeColor=#FF3333;" edge="1" parent="1" source="sACkI0Q_xZ0Zvb8qSm-h-101" target="sACkI0Q_xZ0Zvb8qSm-h-102">
          <mxGeometry relative="1" as="geometry" />
        </mxCell>
        <mxCell id="sACkI0Q_xZ0Zvb8qSm-h-134" style="edgeStyle=orthogonalEdgeStyle;rounded=0;orthogonalLoop=1;jettySize=auto;html=1;exitX=0.25;exitY=1;exitDx=0;exitDy=0;strokeColor=#FF0000;" edge="1" parent="1" source="sACkI0Q_xZ0Zvb8qSm-h-101" target="sACkI0Q_xZ0Zvb8qSm-h-53">
          <mxGeometry relative="1" as="geometry" />
        </mxCell>
        <mxCell id="sACkI0Q_xZ0Zvb8qSm-h-101" value="Electric&lt;br&gt;Heater" style="whiteSpace=wrap;html=1;aspect=fixed;fontSize=14;" vertex="1" parent="1">
          <mxGeometry x="890" y="265" width="50" height="50" as="geometry" />
        </mxCell>
        <mxCell id="sACkI0Q_xZ0Zvb8qSm-h-102" value="Heating&lt;br&gt;Load H(t)" style="shape=trapezoid;perimeter=trapezoidPerimeter;whiteSpace=wrap;html=1;fixedSize=1;fontSize=15;" vertex="1" parent="1">
          <mxGeometry x="920" y="450" width="120" height="60" as="geometry" />
        </mxCell>
        <mxCell id="sACkI0Q_xZ0Zvb8qSm-h-103" value="Cooling&lt;br&gt;Load C(t)" style="shape=trapezoid;perimeter=trapezoidPerimeter;whiteSpace=wrap;html=1;fixedSize=1;fontSize=15;" vertex="1" parent="1">
          <mxGeometry x="735" y="360" width="120" height="60" as="geometry" />
        </mxCell>
        <mxCell id="sACkI0Q_xZ0Zvb8qSm-h-121" style="edgeStyle=orthogonalEdgeStyle;rounded=0;orthogonalLoop=1;jettySize=auto;html=1;exitX=0;exitY=0.5;exitDx=0;exitDy=0;entryX=0.5;entryY=1;entryDx=0;entryDy=0;strokeColor=#FF9933;" edge="1" parent="1" source="sACkI0Q_xZ0Zvb8qSm-h-104" target="sACkI0Q_xZ0Zvb8qSm-h-108">
          <mxGeometry relative="1" as="geometry" />
        </mxCell>
        <mxCell id="sACkI0Q_xZ0Zvb8qSm-h-128" style="edgeStyle=orthogonalEdgeStyle;rounded=0;orthogonalLoop=1;jettySize=auto;html=1;exitX=0.5;exitY=0;exitDx=0;exitDy=0;strokeColor=#FF9933;" edge="1" parent="1" source="sACkI0Q_xZ0Zvb8qSm-h-104" target="sACkI0Q_xZ0Zvb8qSm-h-98">
          <mxGeometry relative="1" as="geometry" />
        </mxCell>
        <mxCell id="sACkI0Q_xZ0Zvb8qSm-h-129" style="edgeStyle=orthogonalEdgeStyle;rounded=0;orthogonalLoop=1;jettySize=auto;html=1;exitX=1;exitY=0.5;exitDx=0;exitDy=0;strokeColor=#FF9933;" edge="1" parent="1" source="sACkI0Q_xZ0Zvb8qSm-h-104">
          <mxGeometry relative="1" as="geometry">
            <mxPoint x="752" y="293" as="targetPoint" />
            <Array as="points">
              <mxPoint x="700" y="375" />
              <mxPoint x="700" y="293" />
            </Array>
          </mxGeometry>
        </mxCell>
        <mxCell id="sACkI0Q_xZ0Zvb8qSm-h-132" style="edgeStyle=orthogonalEdgeStyle;rounded=0;orthogonalLoop=1;jettySize=auto;html=1;exitX=0.5;exitY=1;exitDx=0;exitDy=0;entryX=0;entryY=0.75;entryDx=0;entryDy=0;strokeColor=#FF3399;" edge="1" parent="1" source="sACkI0Q_xZ0Zvb8qSm-h-104" target="sACkI0Q_xZ0Zvb8qSm-h-102">
          <mxGeometry relative="1" as="geometry">
            <Array as="points">
              <mxPoint x="553" y="494" />
              <mxPoint x="870" y="494" />
            </Array>
          </mxGeometry>
        </mxCell>
        <mxCell id="sACkI0Q_xZ0Zvb8qSm-h-133" style="edgeStyle=orthogonalEdgeStyle;rounded=0;orthogonalLoop=1;jettySize=auto;html=1;exitX=0.75;exitY=1;exitDx=0;exitDy=0;entryX=0;entryY=0.5;entryDx=0;entryDy=0;strokeColor=#FF3399;" edge="1" parent="1" source="sACkI0Q_xZ0Zvb8qSm-h-104" target="sACkI0Q_xZ0Zvb8qSm-h-53">
          <mxGeometry relative="1" as="geometry" />
        </mxCell>
        <mxCell id="sACkI0Q_xZ0Zvb8qSm-h-104" value="PVT&lt;br&gt;PV(t)" style="shape=process;whiteSpace=wrap;html=1;backgroundOutline=1;fontSize=15;" vertex="1" parent="1">
          <mxGeometry x="503.31" y="350" width="99" height="50.25" as="geometry" />
        </mxCell>
        <mxCell id="sACkI0Q_xZ0Zvb8qSm-h-123" style="edgeStyle=orthogonalEdgeStyle;rounded=0;orthogonalLoop=1;jettySize=auto;html=1;exitX=1;exitY=0.5;exitDx=0;exitDy=0;entryX=0;entryY=0;entryDx=0;entryDy=0;" edge="1" parent="1" source="sACkI0Q_xZ0Zvb8qSm-h-105" target="sACkI0Q_xZ0Zvb8qSm-h-99">
          <mxGeometry relative="1" as="geometry" />
        </mxCell>
        <mxCell id="sACkI0Q_xZ0Zvb8qSm-h-105" value="DG" style="rounded=0;whiteSpace=wrap;html=1;fontSize=14;" vertex="1" parent="1">
          <mxGeometry x="620" y="194" width="45" height="36" as="geometry" />
        </mxCell>
        <mxCell id="sACkI0Q_xZ0Zvb8qSm-h-116" style="edgeStyle=orthogonalEdgeStyle;rounded=0;orthogonalLoop=1;jettySize=auto;html=1;exitX=0.5;exitY=0;exitDx=0;exitDy=0;entryX=0;entryY=0.25;entryDx=0;entryDy=0;strokeColor=#3333FF;" edge="1" parent="1" source="sACkI0Q_xZ0Zvb8qSm-h-107" target="sACkI0Q_xZ0Zvb8qSm-h-99">
          <mxGeometry relative="1" as="geometry" />
        </mxCell>
        <mxCell id="sACkI0Q_xZ0Zvb8qSm-h-119" style="edgeStyle=orthogonalEdgeStyle;rounded=0;orthogonalLoop=1;jettySize=auto;html=1;exitX=1;exitY=0.5;exitDx=0;exitDy=0;entryX=0.01;entryY=0.309;entryDx=0;entryDy=0;strokeColor=#3333FF;entryPerimeter=0;" edge="1" parent="1" source="sACkI0Q_xZ0Zvb8qSm-h-107" target="sACkI0Q_xZ0Zvb8qSm-h-98">
          <mxGeometry relative="1" as="geometry">
            <mxPoint x="555.5" y="329" as="targetPoint" />
          </mxGeometry>
        </mxCell>
        <mxCell id="sACkI0Q_xZ0Zvb8qSm-h-107" value="" style="ellipse;whiteSpace=wrap;html=1;aspect=fixed;" vertex="1" parent="1">
          <mxGeometry x="360" y="260" width="25" height="25" as="geometry" />
        </mxCell>
        <mxCell id="sACkI0Q_xZ0Zvb8qSm-h-108" value="" style="ellipse;whiteSpace=wrap;html=1;aspect=fixed;" vertex="1" parent="1">
          <mxGeometry x="360" y="304.75" width="25" height="25" as="geometry" />
        </mxCell>
        <mxCell id="sACkI0Q_xZ0Zvb8qSm-h-120" style="edgeStyle=orthogonalEdgeStyle;rounded=0;orthogonalLoop=1;jettySize=auto;html=1;exitX=0;exitY=0.75;exitDx=0;exitDy=0;entryX=1;entryY=0.5;entryDx=0;entryDy=0;strokeColor=#97D077;" edge="1" parent="1" source="sACkI0Q_xZ0Zvb8qSm-h-98" target="sACkI0Q_xZ0Zvb8qSm-h-108">
          <mxGeometry relative="1" as="geometry">
            <mxPoint x="512.5" y="329" as="sourcePoint" />
          </mxGeometry>
        </mxCell>
      </root>
    </mxGraphModel>
  </diagram>
</mxfile>
